<?xml version="1.0" encoding="UTF-8"?>
<svg width="1200pt" height="1200pt" version="1.1" viewBox="0 0 1200 1200" xmlns="http://www.w3.org/2000/svg">
 <g fill="#fff">
  <path d="m1143.8 37.5h-1087.5c-10.367 0-18.75 8.3828-18.75 18.75v1087.5c0 10.367 8.3828 18.75 18.75 18.75h1087.5c10.367 0 18.75-8.3828 18.75-18.75v-1087.5c0-10.367-8.3828-18.75-18.75-18.75zm-787.5 1087.5v-37.5c0-72.355 58.895-131.25 131.25-131.25h225c72.355 0 131.25 58.895 131.25 131.25v37.5zm-93.75-375h-37.5v-187.5h37.5zm37.5-300h600v468.75h-600zm281.25-131.25c0-10.352 8.3984-18.75 18.75-18.75s18.75 8.3984 18.75 18.75-8.3984 18.75-18.75 18.75-18.75-8.3984-18.75-18.75zm356.25 243.75h37.5v187.5h-37.5zm187.5 562.5h-243.75v-37.5c0-52.988-24.602-100.29-62.906-131.25h100.41c10.367 0 18.75-8.3828 18.75-18.75v-150h56.25c10.367 0 18.75-8.3828 18.75-18.75v-225c0-10.367-8.3828-18.75-18.75-18.75h-56.25v-93.75c0-10.367-8.3828-18.75-18.75-18.75h-300v-40.949c21.77-7.7617 37.5-28.387 37.5-52.801 0-31.012-25.238-56.25-56.25-56.25s-56.25 25.238-56.25 56.25c0 24.414 15.73 45.039 37.5 52.801v40.949h-300c-10.367 0-18.75 8.3828-18.75 18.75v93.75h-56.25c-10.367 0-18.75 8.3828-18.75 18.75v225c0 10.367 8.3828 18.75 18.75 18.75h56.25v150c0 10.367 8.3828 18.75 18.75 18.75h100.41c-38.305 30.957-62.906 78.262-62.906 131.25v37.5h-243.75v-900h1050zm0-937.5h-1050v-112.5h1050z"/>
  <path d="m112.5 112.5h37.5v37.5h-37.5z"/>
  <path d="m187.5 112.5h37.5v37.5h-37.5z"/>
  <path d="m262.5 112.5h37.5v37.5h-37.5z"/>
  <path d="m525 112.5h562.5v37.5h-562.5z"/>
  <path d="m511.74 707.01 26.516-26.516-52.371-52.367 52.371-52.367-26.516-26.516-52.367 52.371-52.367-52.371-26.516 26.516 52.371 52.367-52.371 52.367 26.516 26.516 52.367-52.371z"/>
  <path d="m688.26 707.01 52.367-52.371 52.367 52.371 26.516-26.516-52.371-52.367 52.371-52.367-26.516-26.516-52.367 52.371-52.367-52.371-26.516 26.516 52.371 52.367-52.371 52.367z"/>
  <path d="m712.5 881.25c10.367 0 18.75-8.3828 18.75-18.75 0-72.355-58.895-131.25-131.25-131.25s-131.25 58.895-131.25 131.25c0 10.367 8.3828 18.75 18.75 18.75zm-112.5-112.5c45.281 0 83.156 32.27 91.855 75h-183.73c8.7188-42.73 46.594-75 91.875-75z"/>
 </g>
</svg>
